<?xml version="1.0" encoding="utf-8"?>
<!-- Generator: Adobe Illustrator 24.1.2, SVG Export Plug-In . SVG Version: 6.00 Build 0)  -->
<svg version="1.2" baseProfile="tiny" id="Layer_1" xmlns="http://www.w3.org/2000/svg" xmlns:xlink="http://www.w3.org/1999/xlink"
	 x="0px" y="0px" viewBox="0 0 42.5 42.4" overflow="visible" xml:space="preserve">
<path id="Dribble" fill-rule="evenodd" fill="#FFFFFF" d="M40.8,12.9c-0.5-1.3-1.2-2.5-2-3.6c-0.8-1.1-1.6-2.2-2.6-3.1
	c-1-1-2-1.8-3.2-2.6c-1.1-0.8-2.4-1.4-3.6-2c-1.3-0.5-2.6-1-4-1.2C24.1,0.1,22.7,0,21.2,0c-1.4,0-2.9,0.1-4.3,0.4
	c-1.4,0.3-2.7,0.7-4,1.2c-1.3,0.5-2.5,1.2-3.6,2C8.2,4.4,7.2,5.2,6.2,6.2c-1.9,1.9-3.5,4.2-4.6,6.7c-0.5,1.3-1,2.6-1.2,4
	c-0.6,2.8-0.6,5.7,0,8.5c0.3,1.4,0.7,2.7,1.2,4c0.5,1.3,1.2,2.5,2,3.6c0.8,1.1,1.6,2.2,2.6,3.1c1,1,2,1.8,3.1,2.6
	c1.1,0.8,2.3,1.4,3.6,2c2.6,1.1,5.4,1.7,8.3,1.7c1.4,0,2.9-0.1,4.3-0.4c1.4-0.3,2.7-0.7,4-1.2c1.3-0.5,2.5-1.2,3.6-2
	c1.1-0.8,2.2-1.6,3.2-2.6c1-1,1.8-2,2.6-3.1c1.5-2.3,2.6-4.9,3.2-7.6c0.6-2.8,0.6-5.7,0-8.5C41.8,15.6,41.4,14.2,40.8,12.9z
	 M21.2,3.1c4.4,0,8.7,1.6,12,4.5c-2.4,3.1-5.7,5.4-9.5,6.6c-2-3.7-4.3-7.2-6.8-10.6C18.4,3.3,19.8,3.1,21.2,3.1z M16.9,3.6L16.9,3.6
	L16.9,3.6C16.8,3.6,16.9,3.6,16.9,3.6z M13.5,4.8c2.4,3.3,4.7,6.8,6.8,10.4c-5.5,1.4-11.1,2.2-16.8,2.2C4.7,11.9,8.4,7.2,13.5,4.8
	L13.5,4.8z M7.7,33.3L7.7,33.3z M7.7,33.3c-3-3.3-4.7-7.6-4.6-12.1v-0.6c6.3,0,12.6-0.8,18.7-2.6c0.5,1,1,2,1.5,3.1l-0.7,0.2
	C16.4,23.5,11.2,27.7,7.7,33.3L7.7,33.3z M10.1,35.4c0,0-0.1-0.1-0.4-0.3C9.8,35.2,10,35.3,10.1,35.4L10.1,35.4z M21.2,39.3
	c-4,0-8-1.4-11.1-3.9c3.1-5.4,8.2-9.5,14.2-11.3c0,0,0.1,0,0.1,0c1.7,4.4,3,9,3.9,13.7C26.1,38.8,23.7,39.3,21.2,39.3L21.2,39.3z
	 M31.4,36.2c-0.8-4.4-2-8.7-3.5-12.9c3.8-0.6,7.6-0.3,11.3,0.8C38.4,29,35.6,33.4,31.4,36.2L31.4,36.2z M26.8,20.4
	c-0.1-0.3-0.3-0.6-0.4-0.9c-0.4-0.9-0.8-1.8-1.2-2.6c4-1.4,7.4-3.9,10.1-7.2c2.6,3.2,4.1,7.2,4.1,11.3C35.3,20.2,31,20,26.8,20.4
	L26.8,20.4z"/>
</svg>
