<?xml version="1.0" encoding="utf-8"?>
<!-- Generator: Adobe Illustrator 24.1.2, SVG Export Plug-In . SVG Version: 6.00 Build 0)  -->
<svg version="1.2" baseProfile="tiny" id="Layer_1" xmlns="http://www.w3.org/2000/svg" xmlns:xlink="http://www.w3.org/1999/xlink"
	 x="0px" y="0px" viewBox="0 0 42.6 42.4" overflow="visible" xml:space="preserve">
<path id="Google" fill-rule="evenodd" fill="#FFFFFF" d="M27.1,0H14.5C8.2,0,2.9,4.7,2.9,9.8c-0.2,5,3.6,9.2,8.5,9.4
	c0.3,0,0.6,0,0.9,0c0.4,0,0.8,0,1.2,0c-0.4,0.7-0.6,1.6-0.7,2.4c0.1,1.3,0.7,2.5,1.8,3.3c-0.8,0-1.5,0-2.3,0c-7.3,0-12.4,5-12.4,9.8
	c0,4.7,6.1,7.7,13.4,7.7c8.3,0,13.4-4.7,13.4-9.4c0-3.8-0.8-5.7-4.9-8.7c-1.6-0.9-2.9-2.2-3.7-3.8c0.1-1.6,1-3.1,2.5-3.7
	c2.2-1.5,3.6-4,3.7-6.7c0.2-2.8-1.2-5.5-3.6-7.1h3.3L27.1,0z M22.8,32.2c0.1,0.4,0.2,0.9,0.2,1.3c0,3.8-2.5,6.8-9.5,6.8
	c-5,0-8.7-3.2-8.7-7c0-3.7,4.3-7,9.3-6.9c1.1,0,2.2,0.2,3.3,0.5C20.1,28.8,22.3,30,22.8,32.2z M14.8,17.3c-3.9-0.5-6.9-3.7-7.2-7.6
	C7,5.3,9.3,1.9,12.6,2c3.4,0.1,6.3,3.7,6.9,8.2S18.1,17.4,14.8,17.3L14.8,17.3z M36.7,6.3V0.6h-2.9v5.8h-5.8v2.9h5.8V15h2.9V9.2h5.8
	V6.3H36.7z"/>
</svg>
