<?xml version="1.0" encoding="utf-8"?>
<!-- Generator: Adobe Illustrator 24.1.2, SVG Export Plug-In . SVG Version: 6.00 Build 0)  -->
<svg version="1.2" baseProfile="tiny" id="Layer_1" xmlns="http://www.w3.org/2000/svg" xmlns:xlink="http://www.w3.org/1999/xlink"
	 x="0px" y="0px" viewBox="0 0 141.7 43" overflow="visible" xml:space="preserve">
<g>
	<g>
		<path fill="#FFFFFF" d="M54.9,13.7c-0.8,0-1.6,0.2-2.4,0.7c-0.1,0.7-0.4,3.1-0.9,7.3c-0.2,2-0.4,3.6-0.6,4.7c-3.3,1.6-5,3.5-5,5.7
			c0,0.9,0.3,1.7,0.9,2.3c0.6,0.6,1.4,0.9,2.4,0.9c3,0,4.8-1.9,5.4-5.6l2.1-16C56.4,13.7,55.7,13.7,54.9,13.7z M50.6,30.7
			c-0.1,0.8-0.3,1.3-0.6,1.7c-0.3,0.4-0.6,0.5-0.8,0.5c-0.6,0-1-0.3-1-1c0-0.9,0.9-1.9,2.6-2.9L50.6,30.7z"/>
		<path fill="#FFFFFF" d="M95.2,26.6c-0.7-0.5-2.1-1.2-4.1-2.1c0.4-0.8,0.6-1.4,0.6-2s-0.2-1.1-0.5-1.5c-0.6-0.7-1.2-1-1.9-1
			c-0.8,0-1.5,0.3-2.1,0.8c-0.6,0.5-0.9,1.2-0.9,2s0.3,1.5,1,2.2c-2.9,2.6-4.7,4.6-5.4,6.1c-0.2,0.5-0.4,1-0.5,1.4
			c-0.2,0.1-0.5,0.2-0.7,0.2c-0.6,0-0.9-0.4-0.9-1.1c0-0.6,0.1-1.5,0.3-2.8c0.1-0.6,0.2-1.5,0.4-2.9c0.2-1.4,0.4-2.7,0.5-4.1
			c-0.3-0.2-0.8-0.3-1.6-0.3c-0.7,0-1.3,0.2-1.9,0.5c-0.8-0.3-1.7-0.5-2.6-0.5c-0.1,0-0.1,0-0.2,0c-2.2,0-4.1,0.7-5.5,2.2
			c-1.3,1.4-2.1,3.1-2.2,5.3c-0.9,2.6-1.9,3.9-3.1,3.9c-1,0-1.5-0.9-1.6-2.7c0-0.8,0-1.6-0.1-2.4c0-0.8-0.2-1.6-0.5-2.4
			s-0.8-1.3-1.5-1.6c2-0.9,3.5-1.9,4.6-3s1.7-2.4,1.7-4c0-1.2-0.3-2-1-2.5s-1.5-0.8-2.4-0.8s-1.7,0.4-2.5,1.1
			c-0.8,0.7-1.3,1.9-1.5,3.5c-0.3,2.1-0.8,3.4-1.4,4c-0.3,0.3-0.5,0.5-0.7,0.6s-0.5,0.2-0.8,0.2L56,25.1c0.8,0.1,1.3,0.4,1.6,1
			c0.2,0.6,0.4,2.1,0.4,4.5c0,1.5,0.4,2.7,1.1,3.5c0.7,0.9,1.8,1.3,3.4,1.3c0.9,0,1.8-0.3,2.8-0.8c0.5-0.3,1.1-0.8,1.6-1.5
			c0.2-0.3,0.4-0.7,0.6-1.1c0.3,0.7,0.7,1.3,1.2,1.8c1,1,2.3,1.6,3.9,1.6c1.5,0,2.8-0.6,3.8-1.8c0.6,1.2,1.7,1.8,3.5,1.8
			c0.6,0,1.1-0.1,1.7-0.4c0.2,0.8,0.7,1.5,1.4,2c0.8,0.6,1.6,0.9,2.5,0.9c0.8,0,1.6-0.1,2.4-0.4c0.4-0.2,0.6-0.3,0.6-0.5
			c0,0-0.1-0.1-0.4-0.1c-0.3-0.1-0.6-0.2-0.9-0.3c-0.4-0.1-0.7-0.3-1.1-0.6c-0.4-0.2-0.7-0.6-0.9-1c-0.3-0.5-0.4-0.9-0.4-1.3
			s0-0.7,0.1-0.9c0.1-0.8,0.7-1.7,1.8-2.9c0.4-0.4,0.9-1,1.5-1.7s1.1-1.2,1.5-1.6c0.1,0,0.2,0.1,0.2,0.1s0.3,0.2,0.9,0.6
			c0.6,0.3,1.1,0.7,1.6,1.1c0.8,0.7,1.2,1.5,1.2,2.3c0,0.5-0.2,1-0.5,1.4c-0.4,0.4-0.8,0.6-1.4,0.6c-0.5,0-1-0.2-1.4-0.5
			s-0.5-0.7-0.5-1.3c0-0.5,0.2-1.1,0.6-1.6c-0.9,0.1-1.6,0.4-2.1,0.9c-0.6,0.5-0.9,1.2-0.9,2c0,0.9,0.4,1.6,1.1,2.1
			c0.8,0.6,1.7,0.9,2.9,0.9c1.8,0,3.3-0.5,4.4-1.4c1.2-0.9,1.8-2.1,1.8-3.6C97.5,29,96.7,27.7,95.2,26.6z M62.5,19.5
			c0.1-0.4,0.2-0.7,0.2-0.9c0.1-0.2,0.1-0.4,0.1-0.5s0.1-0.3,0.1-0.4c0-0.2,0.1-0.3,0.1-0.4c0-0.1,0.1-0.2,0.2-0.3
			c0.1-0.1,0.1-0.1,0.2-0.2c0.1,0,0.2-0.1,0.4-0.1s0.3,0.1,0.5,0.2c0.2,0.2,0.2,0.4,0.2,0.7c0,1-0.8,2-2.4,3.1
			C62.3,20.3,62.4,19.9,62.5,19.5z M76.1,30.3c-0.6,1.7-1.5,2.5-2.7,2.5c-0.7,0-1.3-0.3-1.7-0.8c-0.4-0.6-0.7-1.3-0.7-2.2
			c0-0.1,0-0.3,0-0.5c0.1-1.8,0.6-3.2,1.3-4.1c0.7-0.9,1.7-1.4,2.9-1.4c0.5,0,1,0.1,1.6,0.3L76.1,30.3z M89.1,23.4
			c-0.4-0.3-0.7-0.7-0.7-1c0-0.5,0.2-0.8,0.7-0.8c0.4,0,0.6,0.3,0.6,0.8C89.8,22.6,89.5,22.9,89.1,23.4z"/>
		<path fill="#FFFFFF" d="M106.1,21.6c-1.4,0-2.5,0.3-3.4,0.9c-0.2-0.6-0.9-0.9-2.2-0.9c-0.7,0-1.2,0.1-1.6,0.2
			c-0.4,3.7-1.2,10.8-2.4,21.2h3.7l0.9-7.8c0.6,0.1,1.2,0.2,1.7,0.2c2.3,0,4.2-0.6,5.7-1.9s2.3-3.2,2.5-5.7c0-0.2,0-0.4,0-0.7
			c0-1.5-0.5-2.8-1.5-3.9C108.7,22.1,107.5,21.6,106.1,21.6z M106,31.6c-0.6,0.9-1.4,1.3-2.4,1.3c-0.5,0-1-0.1-1.4-0.4
			s-0.6-0.7-0.5-1.3c0.1-0.5,0.3-2.1,0.7-4.9c0.6-1.4,1.4-2.1,2.5-2.1c0.8,0,1.4,0.3,1.8,1c0.4,0.6,0.6,1.4,0.6,2.2
			C107.1,29.1,106.8,30.5,106,31.6z"/>
		<path fill="#FFFFFF" d="M135.3,22.2c-0.5-0.4-1.1-0.6-2-0.6c-1.2,0-2.1,0.4-2.9,1.3v-0.1c0-0.9-0.6-1.3-1.7-1.3
			c-0.7,0-1.4,0.1-2.1,0.3l-0.7,6.1c-0.8,1.4-1.8,2.5-2.9,3.4c-1.3,1-2.7,1.5-4.1,1.5c-1,0-1.8-0.3-2.4-1c-0.7-0.7-1-1.7-1-3.1
			s0.3-2.6,1-3.5c0.7-1,1.5-1.5,2.3-1.5c0.4,0,0.8,0.1,1.1,0.4c0.3,0.2,0.5,0.7,0.5,1.3c0,0.7-0.3,1.3-0.9,2s-1.5,1.2-2.6,1.4
			l0.4,1.7c2-0.4,3.6-1,4.8-1.9c1.2-0.9,1.7-2.1,1.7-3.5c0-1.1-0.5-1.9-1.4-2.6c-0.9-0.6-2.1-0.9-3.5-0.9c-2,0-3.8,0.7-5.3,2.2
			s-2.2,3.2-2.2,5.1s0.6,3.5,1.8,4.8c1.1,1.2,2.6,1.7,4.5,1.7c1.2,0,2.3-0.2,3.4-0.6s2-1,2.8-1.6c0.6-0.5,1.2-1.1,1.6-1.6
			c0,1.1,0.3,2,0.8,2.7c0.6,0.8,1.5,1.1,2.7,1.1c1.2,0,2.2-0.4,3.1-1.1c0.8-0.8,1.2-1.9,1.2-3.3c0-2-1-3.8-3.1-5.4
			c0.5-1,1.1-1.5,1.8-1.5s1.1,0.4,1.1,1.2c0,0.2,0,0.4-0.1,0.6h0.1c0.8,0,1.4-0.2,1.9-0.6s0.7-0.9,0.7-1.6
			C136,23.1,135.8,22.6,135.3,22.2z M131.6,30.8c0,1.3-0.4,2-1.2,2c-0.6,0-1-0.4-1-1.2c0,0,0.2-1.4,0.5-4.1
			C131,28.6,131.6,29.7,131.6,30.8z"/>
	</g>
	<g>
		<path fill="#70C5F9" d="M20.5,0.1c-8.4,0-15.2,6.6-15.5,15l0,0v20.3c0,2.2,1.1,2.6,2.5,0.9l0,0L7.7,36c1.4-1.7,3.6-1.7,5,0
			l0.1,0.1l0.1,0.1c1.4,1.7,3.6,1.7,5,0l0.1-0.1l0.1-0.1c1.4-1.7,3.6-1.7,5,0l0.2,0.2l0,0c1.4,1.7,3.6,1.7,5,0l0,0l0.2-0.2
			c1.4-1.7,3.6-1.7,5,0l0.1,0.1l0.1,0.1c1.4,1.7,2.5,1.3,2.5-0.9V15.1l0,0C35.7,6.8,28.9,0.1,20.5,0.1z M15.1,16.5
			c-1.5,0-2.8-1.2-2.8-2.8c0-1.5,1.2-2.8,2.8-2.8c1.5,0,2.8,1.2,2.8,2.8C17.9,15.2,16.6,16.5,15.1,16.5z M25.9,16.5
			c-1.5,0-2.8-1.2-2.8-2.8c0-1.5,1.2-2.8,2.8-2.8c1.5,0,2.8,1.2,2.8,2.8C28.7,15.2,27.4,16.5,25.9,16.5z"/>
		<polygon fill="#70C5F9" points="90.6,12.7 92.3,12.7 92.3,17.7 93.3,17.7 93.3,12.7 95,12.7 95,11.8 90.6,11.8 		"/>
		<polygon fill="#70C5F9" points="96.5,17.7 99.8,17.7 99.8,16.9 97.4,16.9 97.4,15 99.6,15 99.6,14.2 97.4,14.2 97.4,12.6 
			99.8,12.6 99.8,11.8 96.5,11.8 		"/>
		<path fill="#70C5F9" d="M104.7,16.5L104.7,16.5l-1.7-4.7h-1.4v5.9h0.9v-2.9c0-0.6,0-1.3-0.1-2l0,0l1.7,4.9h0.8l1.8-4.9l0,0
			c0,0.1,0,0.4,0,0.9s0,0.8,0,1.1v2.9h0.9v-5.9h-1.4L104.7,16.5z"/>
		<path fill="#70C5F9" d="M112.9,12.3c-0.4-0.3-0.9-0.4-1.6-0.4h-1.7v5.9h1v-2.2h0.6c0.7,0,1.3-0.2,1.7-0.5c0.4-0.3,0.6-0.8,0.6-1.4
			C113.4,13,113.2,12.6,112.9,12.3z M112.1,14.4c-0.2,0.2-0.6,0.3-1.1,0.3h-0.5v-2.1h0.7c0.4,0,0.8,0.1,1,0.3s0.3,0.4,0.3,0.8
			C112.4,14,112.3,14.3,112.1,14.4z"/>
		<polygon fill="#70C5F9" points="115.9,11.8 115,11.8 115,17.7 118.4,17.7 118.4,16.9 115.9,16.9 		"/>
		<path fill="#70C5F9" d="M121.5,11.8l-2.2,5.9h1l0.6-1.6h2.2l0.6,1.6h1l-2.2-5.9H121.5z M121.2,15.2l0.5-1.5
			c0.1-0.4,0.2-0.8,0.3-1.1c0,0.1,0.1,0.3,0.1,0.5c0.1,0.2,0.1,0.4,0.2,0.5l0.6,1.6H121.2z"/>
		<polygon fill="#70C5F9" points="125.4,12.7 127.1,12.7 127.1,17.7 128.1,17.7 128.1,12.7 129.8,12.7 129.8,11.8 125.4,11.8 		"/>
		<polygon fill="#70C5F9" points="134.4,12.6 134.4,11.8 131.1,11.8 131.1,17.7 134.4,17.7 134.4,16.9 132.1,16.9 132.1,15 
			134.3,15 134.3,14.2 132.1,14.2 132.1,12.6 		"/>
	</g>
</g>
</svg>
