<?xml version="1.0" encoding="utf-8"?>
<!-- Generator: Adobe Illustrator 24.1.2, SVG Export Plug-In . SVG Version: 6.00 Build 0)  -->
<svg version="1.2" baseProfile="tiny" id="Layer_1" xmlns="http://www.w3.org/2000/svg" xmlns:xlink="http://www.w3.org/1999/xlink"
	 x="0px" y="0px" viewBox="0 0 42.5 34.4" overflow="visible" xml:space="preserve">
<path id="Tweter" fill-rule="evenodd" fill="#FFFFFF" d="M0,30.5c11.6,7.4,26.9,4,34.3-7.6c2.5-4,3.9-8.6,3.9-13.3
	c0-0.4,0-0.8,0-1.1c1.7-1.2,3.2-2.8,4.4-4.5c-1.6,0.7-3.3,1.2-5,1.4c1.8-1.1,3.2-2.8,3.8-4.8c-1.7,1-3.6,1.7-5.5,2.1
	C32.5-0.8,26.9-1,23.4,2.3c-1.7,1.6-2.7,3.9-2.7,6.3c0,0.7,0.1,1.3,0.2,2c-7-0.3-13.6-3.6-18-9.1c-2.3,4-1.1,9.1,2.7,11.6
	c-1.4,0-2.7-0.4-4-1.1v0.1c0,4.1,2.9,7.7,7,8.5C7.9,20.9,7.1,21,6.4,21c-0.6,0-1.1-0.1-1.6-0.2c1.1,3.5,4.4,6,8.2,6
	C9.2,29.7,4.6,31,0,30.5z"/>
</svg>
